# xmcd
#
# Track frame offsets:
#	150
#	12632
#	31442
#	44452
#	59990
#	78692
#	89952
#	102780
#	117877
#	129755
#	143017
#	156590
#
# Disc length: 2245 seconds
#
# Revision: 0
# Processed by: cddbd v1.4PL0 Copyright (c) Steve Scherf et al.
# Submitted via: audiograbber 1.81.01
#
DISCID=af08c30c
DTITLE=Tony Renis - I Grandi Successi Originali cd1
DYEAR=1900
DGENRE=pop
TTITLE0=Quando quando quando
TTITLE1=Grande grande grande
TTITLE2=Quando dico che ti amo
TTITLE3=Il posto mio
TTITLE4=Un ragazzo che ti ama
TTITLE5=Nessun'altra che te
TTITLE6=Ci sono cose più grandi
TTITLE7=Canzone blù
TTITLE8=Mi perderai
TTITLE9=Frin frin frin
TTITLE10=Prima di domani
TTITLE11=la canzone portafortuna
EXTD=
EXTT0=
EXTT1=
EXTT2=
EXTT3=
EXTT4=
EXTT5=
EXTT6=
EXTT7=
EXTT8=
EXTT9=
EXTT10=
EXTT11=
PLAYORDER=
